<mxfile host="65bd71144e">
    <diagram id="Wg3Um_qMI8Lw3gviP9Ik" name="Page-1">
        <mxGraphModel dx="835" dy="487" grid="1" gridSize="10" guides="1" tooltips="1" connect="1" arrows="1" fold="1" page="1" pageScale="1" pageWidth="850" pageHeight="1100" math="0" shadow="0">
            <root>
                <mxCell id="0"/>
                <mxCell id="1" parent="0"/>
                <mxCell id="22" value="User" style="swimlane;childLayout=stackLayout;horizontal=1;startSize=30;horizontalStack=0;rounded=1;fontSize=14;fontStyle=0;strokeWidth=2;resizeParent=0;resizeLast=1;shadow=0;dashed=0;align=center;" parent="1" vertex="1">
                    <mxGeometry x="70" y="220" width="170" height="140" as="geometry"/>
                </mxCell>
                <mxCell id="23" value="Guid Id&#10;string FirstName&#10;string LasrName&#10;string Username&#10;string PasswordHash&#10;string Gender&#10;List&lt;User_Chat&gt; User_Chats" style="align=left;strokeColor=none;fillColor=none;spacingLeft=4;fontSize=12;verticalAlign=top;resizable=0;rotatable=0;part=1;" parent="22" vertex="1">
                    <mxGeometry y="30" width="170" height="110" as="geometry"/>
                </mxCell>
                <mxCell id="25" value="Chat" style="swimlane;childLayout=stackLayout;horizontal=1;startSize=30;horizontalStack=0;rounded=1;fontSize=14;fontStyle=0;strokeWidth=2;resizeParent=0;resizeLast=1;shadow=0;dashed=0;align=center;" parent="1" vertex="1">
                    <mxGeometry x="265" y="220" width="165" height="140" as="geometry"/>
                </mxCell>
                <mxCell id="26" value="int Id&#10;List&lt;User_Chat&gt; User_Chats&#10;List&lt;Message&gt; Messages&#10;" style="align=left;strokeColor=none;fillColor=none;spacingLeft=4;fontSize=12;verticalAlign=top;resizable=0;rotatable=0;part=1;" parent="25" vertex="1">
                    <mxGeometry y="30" width="165" height="110" as="geometry"/>
                </mxCell>
                <mxCell id="30" value="User_Chat" style="swimlane;childLayout=stackLayout;horizontal=1;startSize=30;horizontalStack=0;rounded=1;fontSize=14;fontStyle=0;strokeWidth=2;resizeParent=0;resizeLast=1;shadow=0;dashed=0;align=center;" parent="1" vertex="1">
                    <mxGeometry x="170" y="420" width="160" height="140" as="geometry"/>
                </mxCell>
                <mxCell id="31" value="Guid UserId&#10;int ChatId&#10;User User&#10;Chat Chat" style="align=left;strokeColor=none;fillColor=none;spacingLeft=4;fontSize=12;verticalAlign=top;resizable=0;rotatable=0;part=1;" parent="30" vertex="1">
                    <mxGeometry y="30" width="160" height="110" as="geometry"/>
                </mxCell>
                <mxCell id="35" value="Message" style="swimlane;childLayout=stackLayout;horizontal=1;startSize=30;horizontalStack=0;rounded=1;fontSize=14;fontStyle=0;strokeWidth=2;resizeParent=0;resizeLast=1;shadow=0;dashed=0;align=center;" parent="1" vertex="1">
                    <mxGeometry x="480" y="220" width="130" height="150" as="geometry"/>
                </mxCell>
                <mxCell id="36" value="int Id&#10;List&lt;string&gt; Messages&#10;Content Content&#10;Chat Chat&#10;" style="align=left;strokeColor=none;fillColor=none;spacingLeft=4;fontSize=12;verticalAlign=top;resizable=0;rotatable=0;part=1;" parent="35" vertex="1">
                    <mxGeometry y="30" width="130" height="120" as="geometry"/>
                </mxCell>
                <mxCell id="38" value="Content" style="swimlane;childLayout=stackLayout;horizontal=1;startSize=30;horizontalStack=0;rounded=1;fontSize=14;fontStyle=0;strokeWidth=2;resizeParent=0;resizeLast=1;shadow=0;dashed=0;align=center;" parent="1" vertex="1">
                    <mxGeometry x="680" y="220" width="80" height="140" as="geometry"/>
                </mxCell>
                <mxCell id="39" value="int Id&#10;string FileUrl&#10;" style="align=left;strokeColor=none;fillColor=none;spacingLeft=4;fontSize=12;verticalAlign=top;resizable=0;rotatable=0;part=1;" parent="38" vertex="1">
                    <mxGeometry y="30" width="80" height="110" as="geometry"/>
                </mxCell>
                <mxCell id="40" value="" style="fontSize=12;html=1;endArrow=ERmandOne;startArrow=ERmandOne;entryX=0;entryY=0;entryDx=0;entryDy=0;exitX=1;exitY=0;exitDx=0;exitDy=0;" parent="1" source="36" target="39" edge="1">
                    <mxGeometry width="100" height="100" relative="1" as="geometry">
                        <mxPoint x="508.96000000000004" y="426.22" as="sourcePoint"/>
                        <mxPoint x="660" y="370" as="targetPoint"/>
                    </mxGeometry>
                </mxCell>
                <mxCell id="41" value="" style="edgeStyle=orthogonalEdgeStyle;fontSize=12;html=1;endArrow=ERoneToMany;startArrow=ERzeroToOne;exitX=0.438;exitY=0;exitDx=0;exitDy=0;exitPerimeter=0;" edge="1" parent="1" source="30">
                    <mxGeometry width="100" height="100" relative="1" as="geometry">
                        <mxPoint x="240" y="410" as="sourcePoint"/>
                        <mxPoint x="70" y="278" as="targetPoint"/>
                        <Array as="points">
                            <mxPoint x="240" y="390"/>
                            <mxPoint x="40" y="390"/>
                            <mxPoint x="40" y="278"/>
                        </Array>
                    </mxGeometry>
                </mxCell>
                <mxCell id="43" value="" style="edgeStyle=orthogonalEdgeStyle;fontSize=12;html=1;endArrow=ERoneToMany;startArrow=ERzeroToOne;entryX=1.006;entryY=0.071;entryDx=0;entryDy=0;entryPerimeter=0;elbow=vertical;exitX=0.681;exitY=-0.011;exitDx=0;exitDy=0;exitPerimeter=0;" edge="1" parent="1" source="30" target="26">
                    <mxGeometry width="100" height="100" relative="1" as="geometry">
                        <mxPoint x="430" y="490" as="sourcePoint"/>
                        <mxPoint x="440" y="250" as="targetPoint"/>
                    </mxGeometry>
                </mxCell>
                <mxCell id="44" value="" style="edgeStyle=orthogonalEdgeStyle;fontSize=12;html=1;endArrow=ERoneToMany;startArrow=ERzeroToOne;entryX=0.75;entryY=1;entryDx=0;entryDy=0;elbow=vertical;exitX=-0.003;exitY=0.432;exitDx=0;exitDy=0;exitPerimeter=0;" edge="1" parent="1" source="36" target="26">
                    <mxGeometry width="100" height="100" relative="1" as="geometry">
                        <mxPoint x="288.96000000000004" y="428.4599999999999" as="sourcePoint"/>
                        <mxPoint x="440.99000000000024" y="267.80999999999995" as="targetPoint"/>
                        <Array as="points">
                            <mxPoint x="455" y="302"/>
                            <mxPoint x="455" y="410"/>
                            <mxPoint x="389" y="410"/>
                        </Array>
                    </mxGeometry>
                </mxCell>
            </root>
        </mxGraphModel>
    </diagram>
</mxfile>